<svg xmlns="http://www.w3.org/2000/svg" viewBox="0 0 48 48">
  <path d="M35 16.5c-0.2-3.5 2.8-5.2 2.9-5.3-1.6-2.3-4-2.6-4.9-2.7-2.1-0.2-4 1.2-5.1 1.2-1 0-2.7-1.2-4.4-1.1-2.3 0-4.4 1.3-5.5 3.4-2.4 4.1-0.6 10.2 1.7 13.5 1.1 1.6 2.5 3.5 4.3 3.4 1.7-0.1 2.4-1.1 4.4-1.1 2.1 0 2.7 1.1 4.5 1.1 1.8 0 3-1.7 4.2-3.3 1.3-1.9 1.8-3.7 1.9-3.8C38.8 21.8 35.2 20.3 35 16.5z" fill="#555"/>
  <path d="M31.5 6.5c0.9-1.1 1.5-2.7 1.4-4.3-1.3 0.1-2.9 0.9-3.8 2-0.9 1-1.6 2.6-1.4 4.1C29.1 8.4 30.6 7.6 31.5 6.5z" fill="#555"/>
  <text x="24" y="42" text-anchor="middle" font-family="Arial" font-size="7" fill="#555">macOS</text>
</svg>
